<?xml version="1.0" encoding="UTF-8" standalone="no"?>
<svg width="988px" height="1119px" viewBox="0 0 988 1119" version="1.1" xmlns="http://www.w3.org/2000/svg" xmlns:xlink="http://www.w3.org/1999/xlink">
    <!-- Generator: Sketch 40.3 (33839) - http://www.bohemiancoding.com/sketch -->
    <title>Group</title>
    <desc>Created with Sketch.</desc>
    <defs>
        <rect id="path-1" x="0" y="0" width="988" height="1119"></rect>
        <mask id="mask-2" maskContentUnits="userSpaceOnUse" maskUnits="objectBoundingBox" x="0" y="0" width="988" height="1119" fill="white">
            <use xlink:href="#path-1"></use>
        </mask>
    </defs>
    <g id="Page-1" stroke="none" stroke-width="1" fill="none" fill-rule="evenodd">
        <g id="Group">
            <path d="M287.5,439.5 C287.5,439.5 290.608804,399.247295 298.5,385.5 C306.391196,371.752705 322.139157,360.277043 346.5,352 C370.860843,343.722957 400,339 426.5,336.5 C442.444307,334.99582 479.984832,334.794726 511,336.5 C531.533135,337.628951 570.30439,343.263918 578,344.5 C597.319779,347.603177 625.404687,355.799675 652,364.5 C678.595313,373.200325 673.324729,370.935577 691,385.5 C708.675271,400.064423 714.5,416 714.5,416 C714.5,416 718.975429,387.38228 710,367.5 C701.024571,347.61772 675,328.5 675,328.5 C675,328.5 657.484873,315.011207 629.5,303 C601.515127,290.988793 591.5,290 552,282.5 C512.5,275 419.604874,271.540655 378.5,273 C337.395126,274.459345 332.086262,277.350887 298.5,282.5 C264.913738,287.649113 266.493676,287.932933 239,295.5 C211.506324,303.067067 209.234476,303.782931 189.5,312.5 C169.765524,321.217069 167.954506,323.603511 157.5,331.5 C147.045494,339.396489 136.5,359.5 139,375 C141.5,390.5 140.86926,385.398654 144.5,392 C148.13074,398.601346 149.652637,399.386532 155.5,405 C161.347363,410.613468 161.634517,410.838277 169.5,416 C177.365483,421.161723 181.077685,422.838245 187.5,426 C193.922315,429.161755 192.575426,428.67195 202.5,432.5 C212.424574,436.32805 215.363591,437.378365 222.5,439.5 C229.636409,441.621635 243.209318,444.285286 251.5,445 C259.790682,445.714714 269.21484,446.523184 277,445 C284.78516,443.476816 287.5,439.5 287.5,439.5 Z" id="Path" stroke="#032B43" fill="#032B43"></path>
            <path d="M299,436.5 C304,434.5 293.879962,429.535917 318.5,424.5 C343.120038,419.464083 360.27415,425.789189 369.5,422 C378.72585,418.210811 377.726869,407.426374 365,403.5 C352.273131,399.573626 343.86531,398.458458 326.5,403.5 C309.13469,408.541542 300.310838,414.883476 295,422 C289.689162,429.116524 294,438.5 299,436.5 Z" id="Path-2" fill="#032B43"></path>
            <path d="M469.381396,405.573705 C451.394008,405.195024 448.128345,382.934586 465.22319,377.390312 C482.318035,371.846038 505.841962,367.428332 541.918982,369.535924 C577.996002,371.643516 591.076055,389.002661 599.671837,393.099089 C604.165803,395.240744 594.309781,397.502157 582.576992,394.94718 C571.868023,392.615154 560.331967,385.470896 541.918982,386.630769 C503.332658,389.061404 487.368784,405.952387 469.381396,405.573705 Z" id="Path-3" fill="#032B43"></path>
            <path d="M237,472.5 C237,472.5 259,449.5 288,442 C317,434.5 334,430.5 362,436.5 C368.147044,437.817224 373.288689,441.874732 378.5,442 C384.577898,442.146099 390.5,436.5 403,434 C415.5,431.5 418.844363,431.493511 426.5,432 C429.028442,432.167279 436.112355,433.742344 442,432 C445.177481,431.059681 448.319352,427.411418 449.5,426 C453.724294,420.950027 465.938604,414.334792 474.5,410.5 C483.061396,406.665208 488.396007,405.808358 497.5,404.5 C501.625304,403.907142 506.592522,403.153619 510.5,402.5 C522.60175,400.475693 534.178991,399.666388 548.5,400.5 C577.848445,402.208344 608,408.5 608,408.5 L706,410.5 L707.5,418.5 L614,421.5 C614,421.5 609.650209,423.097145 606,428 C604.545076,429.954211 604.709954,429.155131 603,434 C598.9737,445.407849 599.13158,459.627577 598,467.5 C596.374465,478.808878 593.211591,486.782594 590,494.5 C584.552731,507.589706 576.628733,513.391174 568.5,519 C560.371267,524.608826 552.678806,527.258029 541.5,530 C530.321194,532.741971 515.5,532 515.5,532 C515.5,532 489,534 466,518.5 C443,503 435.330647,473.916134 432.5,467.5 C429.669353,461.083866 439.682585,452.417925 432.5,449.5 C425.317415,446.582075 410.067794,447.049832 403,449.5 C397.758857,451.316929 392.077288,451.071666 393.5,459 C393.995846,461.763195 400.99405,464.400769 400.5,470 C399.756476,478.426606 399.810106,484.842261 398.5,490.5 C396.44181,499.38837 395.744233,507.604234 393.5,515 C389.82724,527.103414 387,534 378.5,542.5 C370,551 355.5,556.5 342,558 C328.5,559.5 319.5,560 306,555 C292.5,550 290.916346,550.22365 274.5,532 C258.083654,513.77635 251.5,494.5 251.5,494.5 C251.5,494.5 246.835253,485.63872 245.5,484 C244.164747,482.36128 240.5,481 240.5,481 L237,472.5 Z M264.5,474 C261.5,484 263.740713,500.564776 276.5,518.5 C289.259287,536.435224 291.53015,542.9316 318,547.5 C344.46985,552.0684 366,543.5 376,535.5 C386,527.5 388.967466,491.869865 384.5,474 C382.244111,464.976445 378.467894,460.781555 374,456.5 C369.619866,452.302545 364.638415,447.965285 353.5,444.5 C331,437.5 296.367118,449.356352 283.5,453.5 C270.632882,457.643648 267.5,464 264.5,474 Z M452,435.5 C462,421 478.56452,416.840782 511,411.5 C543.43548,406.159218 568.5,410 582,420 C595.5,430 591.5,447 591.5,460 C591.5,473 584.5,497 565.5,511 C546.5,525 504,525 485,517 C466,509 462.279139,497.582019 457.5,487.5 C450.112472,471.915352 442,450 452,435.5 Z" id="Combined-Shape" fill="#032B43"></path>
            <path d="" id="Path-5" stroke="#032B43"></path>
            <path d="M682,517.5 C679.276104,541.805535 675,574 660,603 C645,632 623.255576,655.258125 610.5,662.5 C600.971836,667.909538 601.563317,670.901154 587.5,660.5 C582.736426,656.976886 575.215978,643.65623 566.5,639.5 C532.052176,623.073492 531.000396,619.726865 502.5,611 C473.999604,602.273135 450.757675,603.119761 443,603 C435.693176,602.887199 409.295875,606.747778 395.5,615.5 C367.057007,633.544479 359.299286,647.986276 351.5,656.5 C347.045537,661.362505 346.790377,680.022275 345,686.5 C343.655619,691.364076 338.570977,688.229181 332.5,678 C318.344009,654.148124 307.5,596 307.5,596 C307.5,596 310.479711,632.31014 314.5,669 C316.317332,685.58529 316.731205,703.547448 320,716 C330.5,756 334.5,767.5 365,799.5 C395.5,831.5 429.45394,850.492531 448,853.5 C485,859.5 525.398519,849.715178 571,825.5 C616.601481,801.284822 653,757 653,757 C653,757 675.5,727.5 685.5,686.5 C695.5,645.5 698.793365,625.287633 696,566.5 C693.206635,507.712367 687,451 682,449 C677,447 684.723896,493.194465 682,517.5 Z M384,672.25 C384,672.25 411.620884,641.78199 436.5,638 C461.379116,634.21801 504.872413,645.683065 520.5,651.5 C536.127587,657.316935 532.5,662.5 526.5,671.5 C520.5,680.5 520,683.5 494.5,690 C469,696.5 457.5,699.5 436.5,699.5 C425.998224,699.5 398.501057,698.251141 387,691.5 C375.502832,684.751142 384,672.25 384,672.25 Z" id="Combined-Shape" stroke="#032B43" fill="#032B43"></path>
            <path d="M690.5,229 C677.189767,193.079436 600.5,101 464.5,101 C429.313328,101 358.5,101 308,170.5 C257.5,240 254.991822,275.5 258,275.5 C262.746371,275.5 281.673587,270.958849 300.5,268 C321.338444,264.724931 342,263 342,263 C342,263 467.5,247.5 591,280.5 C714.5,313.5 712,398.5 712,398.5 L714.5,414.5 C714.5,414.5 710.460593,282.868011 690.5,229 Z" id="Path-10" stroke="#032B43" stroke-width="6" fill="#032B43"></path>
            <path d="M143,379 C143,379 139.009887,354.22677 147.5,339.5 C151.445966,332.655411 165.304287,318.984723 173,314 C217,285.5 259,276 259,276" id="Path-11" stroke="#032B43" stroke-width="5"></path>
            <use id="Rectangle" stroke="#032B43" mask="url(#mask-2)" stroke-width="38" xlink:href="#path-1"></use>
            <text id="JWRANTON" font-family="HelveticaNeue, Helvetica Neue" font-size="72" font-weight="normal" letter-spacing="16.7999992" fill="#032B43">
                <tspan x="227" y="1026">JWRANTON</tspan>
            </text>
        </g>
    </g>
</svg>
