<?xml version="1.0" encoding="utf-8"?>
<!-- Generator: Adobe Illustrator 18.1.1, SVG Export Plug-In . SVG Version: 6.00 Build 0)  -->
<svg version="1.1" id="Layer_1" xmlns="http://www.w3.org/2000/svg" xmlns:xlink="http://www.w3.org/1999/xlink" x="0px" y="0px"
	 viewBox="0 0 1261.4 268.5" enable-background="new 0 0 1261.4 268.5" xml:space="preserve">
<path class="skyline" fill="none" stroke="#E8A400" stroke-width="2" stroke-miterlimit="10" d="M-14.7,200.4h7.3v-13.6H14v-2h18.8v-4.2h3.7v-2.5h18.2v2.5H59v2.2
	h11.2h1.8v4h-1.8v28.8h8.3v-26.8H83v-2.2h-2.5v-4h15.2v-29.8h9.3h9.3h17.1v6.2H144v4.3c7.3-69.2,17.6-75.1,25.5-75.1
	c8.6,0,20,7,27.3,95.2c9.2-1.7,20.9-2.9,35.3-2.9c0,2.9,0,2.9,0,2.9h-1.6v3.3h3.6v-5.4h3.5v-7.5h19.3v7.5H298v5.4h23.3v23.6h2.9
	v-47.2h5.2v-3.3v-2.7h3.7v2.7h19.9v-2.7h3.7v2.7v3.3h6.2v18.1h25.6v7.6h35.4v10.4h11.8v3.5h12.7v8.7h15.1v6.2h9.6v-85.3h1.5v-5h3.9
	v-5.1h3.8v-4l8.6-8.3h1.3l8.6,8.3v4h3.5v5.2h2.9v5h2.3v53.6h6v-32.7h1.3v-1.6h1.8v1.6h2.7V125h1.5v-5.6c0-5,3.4-10,9.4-10
	c1.7,0,2.6,0,3.2,0c0,0,0.3,0,0.7,0c1,0,3.1,0,4.5,0c1.9,0,8.2,1.3,8.2,10v5.6h2.2v28.2h10v-22.4l16.9-35.9h5.3l14.6,35.9v66.2
	l2.6,4.8h9.6v-55.1h20.4V123h52.1v17.3h25.8v9.8h3v-9.8h5.9v-2.3h17.4v-18.6h5.3v-2.9h14.3V96h3.1c0,0,0.4,11,2.2,20.4h17.9v2.9h7.1
	v8.6h20.7v31.3h3.7v5.6h2.8v5.6h2.7v-77h4.4v-9.8l2.2-1.6l2.2,1.6v2.9l9.3-3.6V65.3l2.2-1.6l2.2,1.6V83l9.2,3.7v-2.9l2.2-1.6
	l2.2,1.6v9.7h4.4v20h5.9V55.6h3v-5.7h3v-5.7h3v-5.7h25v5.7h3v5.7h3v5.7h3v36.2h2.9c1.1-1.2,2.6-2,4.4-2s3.3,0.8,4.4,2h14.9v77.6
	h29.3l1.8-32.9h0.4l1.8,32.9h11.4v32.6h9.8V183h6.3V138h5.1V130h20.3v-4.2h8.3v4.1h4.2v32.7h1.2v33.2h-2.1v3.3v2.9h14v-26.6h4.1V173
	h15.4v2.4h4.2v16.4h11.6v-10.6h19.8v-11.7h6.6v0.9h8.3V159h6.9v2.4h8.6V159h6.4v17.3h21.8v8.4h2.7v19.4h6v7.8c2-2.5,5-4.1,8.3-4.1
	c3.6,0,6.7,1.9,8.7,4.6v-81.1c-6-3-10.1-9.3-10.1-16.4c0-10.1,8.2-18.4,18.4-18.4c10.1,0,18.4,8.2,18.4,18.4
	c0,7.6-4.6,14.1-11.1,16.9v77.7h7.8V183h84.5v23.9h3v4.4"/>
<path class="skyline-bridge" fill="none" stroke="#E8A400" stroke-width="2" stroke-miterlimit="10" d="M149.9,165.4c2.6-38.3,7.6-74.7,19.6-74.7c14,0,18.4,49.9,20.8,94.4
	l-7.7,2.2V179h-3.9v-13.6H149.9z"/>
</svg>
